<svg width="734" height="640" viewBox="0 0 734 640" fill="none" xmlns="http://www.w3.org/2000/svg" xmlns:xlink="http://www.w3.org/1999/xlink">
<rect width="734" height="640" fill="url(#pattern0)"/>
<defs>
<pattern id="pattern0" patternContentUnits="objectBoundingBox" width="1" height="1">
<use xlink:href="#image0_1_86" transform="translate(-0.00408719) scale(0.0013624 0.0015625)"/>
</pattern>
<image id="image0_1_86" width="740" height="640" xlink:href="img/home.png"/>
</defs>
<path d="M222 534L442.8 542L512 528.3V550L443.5 569.7L222 558.7V534Z" fill="#3595F6" fill-opacity="0.75"/>
<path d="M223 534V509L443.3 512.3L513 509V529L443.7 542L223 534Z" fill="#3595F6" fill-opacity="0.75"/>
<path d="M223 510V485H444H513V508L445 515L223 510Z" fill="#3595F6" fill-opacity="0.75"/>
<path d="M223 485V460L444.3 456.3L512 463V485H444" fill="#3595F6" fill-opacity="0.75"/>
<path d="M223 460V434L444.5 430.7L513 441.7V463L444 456.3L223 460Z" fill="#3595F6" fill-opacity="0.75"/>
<path d="M222 435V411.3L443 399L514 422V443.3L443 431L222 435Z" fill="#3595F6" fill-opacity="0.75"/>
<path d="M222 413V388L444.2 371.7L514 400.3V421L443.7 399.3L222 413Z" fill="#3595F6" fill-opacity="0.75"/>
<path d="M222 388V363L444.5 342.7L514 379.3V400L442 371.3L222 388Z" fill="#3595F6" fill-opacity="0.75"/>
<path d="M222 364V340L445 315.3L514 359.3V381L444.7 343L222 364Z" fill="#3595F6" fill-opacity="0.75"/>
<path d="M222 340V316L444.5 287.3L514 338.3V359L443.7 316.7L222 340Z" fill="#3595F6" fill-opacity="0.75"/>
<path d="M221 315V291L443.3 258L514 317.3V337L444 286.3L221 315Z" fill="#3595F6" fill-opacity="0.75"/>
<path d="M222 290V266L443.2 231L513 295V316L444.3 257.7L222 290Z" fill="#3595F6" fill-opacity="0.75"/>
<path d="M222 266V241L444.3 203L513 273.3V294L444 230L222 266Z" fill="#3595F6" fill-opacity="0.75"/>
<path d="M222 240V215L442.8 171.3L513 250.3V273L444 199.7L222 240Z" fill="#3595F6" fill-opacity="0.75"/>
<path d="M223 215V190L443 142L513 227V250L442.3 170.7L223 215Z" fill="#3595F6" fill-opacity="0.75"/>
<path d="M222 190V165L441.8 113L513 205.3V228L443.3 141.7L222 190Z" fill="#3595F6" fill-opacity="0.75"/>
<path d="M222 164V138L444 81.3L513 183V204L443.7 112.3L222 164Z" fill="#3595F6" fill-opacity="0.75"/>

</svg>
